HIERARCHY
ROOT hip
{
	OFFSET 0.000000 0.000000 0.000000
	CHANNELS 6 Xposition Yposition Zposition Xrotation Zrotation Yrotation 
	JOINT abdomen
	{
		OFFSET 0.000000 3.422050 0.000000
		CHANNELS 3 Xrotation Zrotation Yrotation 
		JOINT chest
		{
			OFFSET 0.000000 8.486693 -0.684411
			CHANNELS 3 Xrotation Zrotation Yrotation 
			JOINT neck
			{
				OFFSET 0.000000 10.266162 -0.273764
				CHANNELS 3 Xrotation Zrotation Yrotation 
				JOINT head
				{
					OFFSET 0.000000 3.148285 0.000000
					CHANNELS 3 Xrotation Zrotation Yrotation 
					End Site
					{
						OFFSET 0.000000 3.148289 0.000000
					}
				}
			}
			JOINT lCollar
			{
				OFFSET 3.422053 6.707223 -0.821293
				CHANNELS 3 Yrotation Zrotation Xrotation 
				JOINT lShldr
				{
					OFFSET 3.285171 0.000000 0.000000
					CHANNELS 3 Zrotation Yrotation Xrotation 
					JOINT lForeArm
					{
						OFFSET 10.129278 0.000000 0.000000
						CHANNELS 3 Yrotation Zrotation Xrotation 
						JOINT lHand
						{
							OFFSET 8.486692 0.000000 0.000000
							CHANNELS 3 Zrotation Yrotation Xrotation 
							End Site
							{
								OFFSET 4.106464 0.000000 0.000000
							}
						}
					}
				}
			}
			JOINT rCollar
			{
				OFFSET -3.558935 6.707223 -0.821293
				CHANNELS 3 Yrotation Zrotation Xrotation 
				JOINT rShldr
				{
					OFFSET -3.148289 0.000000 0.000000
					CHANNELS 3 Zrotation Yrotation Xrotation 
					JOINT rForeArm
					{
						OFFSET -10.266159 0.000000 0.000000
						CHANNELS 3 Yrotation Zrotation Xrotation 
						JOINT rHand
						{
							OFFSET -8.349810 0.000000 0.000000
							CHANNELS 3 Zrotation Yrotation Xrotation 
							End Site
							{
								OFFSET -4.106464 0.000000 0.000000
							}
						}
					}
				}
			}
		}
	}
	JOINT lThigh
	{
		OFFSET 5.338403 -1.642589 1.368821
		CHANNELS 3 Xrotation Zrotation Yrotation 
		JOINT lShin
		{
			OFFSET -2.053232 -20.121670 0.000000
			CHANNELS 3 Xrotation Zrotation Yrotation 
			JOINT lFoot
			{
				OFFSET 0.000000 -19.300380 -1.231939
				CHANNELS 3 Xrotation Yrotation Zrotation 
				End Site
				{
					OFFSET 0.000000 -2.463878 4.653993
				}
			}
		}
	}
	JOINT rThigh
	{
		OFFSET -5.338403 -1.642589 1.368821
		CHANNELS 3 Xrotation Zrotation Yrotation 
		JOINT rShin
		{
			OFFSET 2.053232 -20.121670 0.000000
			CHANNELS 3 Xrotation Zrotation Yrotation 
			JOINT rFoot
			{
				OFFSET 0.000000 -19.300380 -1.231939
				CHANNELS 3 Xrotation Yrotation Zrotation 
				End Site
				{
					OFFSET 0.000000 -2.463878 4.653993
				}
			}
		}
	}
}
MOTION
Frames: 19
Frame Time: 0.033325
4.959171 16.557928 -10.954638 0.000000 0.000000 -67.003799 4.572401 -0.134361 -1.064579 5.149950 -0.025430 3.244202 21.997143 -4.663879 -1.107204 -4.488319 0.646710 -0.063434 -31.760950 -7.697602 0.519364 -13.595694 -31.993153 6.856907 -61.161251 -13.456036 -1.755562 -0.097878 0.911575 31.058960 17.661139 30.585871 -4.983925 -31.865187 -13.020807 -46.442520 27.419815 18.561562 -3.122122 -46.240234 -9.409014 -17.045259 -34.356548 57.091099 14.385845 145.193680 5.531421 -0.735253 56.309616 8.205308 3.192663 -49.252388 -20.480976 -0.520319 140.403717 -16.589750 2.585393 56.309589 -8.210064 -3.194125 
4.959171 16.557928 -10.954638 0.000000 0.000000 -67.003799 4.571572 -0.135383 -1.971034 5.150896 -0.026831 2.528070 22.731401 -4.809834 -1.173183 -4.637842 0.668254 -0.066286 -30.175394 -7.226314 0.889393 -13.595694 -31.993153 6.856907 -62.208679 -13.595128 -2.000965 0.023969 0.809886 31.052912 17.479534 30.594576 -4.865694 -35.474201 -15.059937 -49.832069 27.427923 18.565514 -3.126389 -45.487114 -8.889452 -17.173935 -34.356548 57.091099 14.385842 145.193680 5.531421 -0.735253 56.309616 8.205308 3.192663 -49.252388 -20.480976 -0.520319 140.403717 -16.589750 2.585393 56.309589 -8.210064 -3.194125 
4.959171 16.557928 -10.954638 0.000000 0.000000 -67.003799 4.570760 -0.136416 -2.876752 5.151858 -0.028219 1.812302 23.465170 -4.954771 -1.240972 -4.787359 0.689790 -0.069193 -28.598808 -6.746382 1.244826 -13.595694 -31.993153 6.856907 -63.256214 -13.729696 -2.248827 0.145823 0.708212 31.046635 17.297897 30.602949 -4.747425 -39.008472 -17.311914 -53.134640 27.436029 18.569464 -3.130656 -44.736813 -8.368691 -17.295420 -34.356548 57.091099 14.385842 145.193680 5.531421 -0.735253 56.309616 8.205308 3.192663 -49.252388 -20.480976 -0.520319 140.403717 -16.589750 2.585393 56.309593 -8.210065 -3.194125 
4.959171 16.557928 -10.954638 0.000000 0.000000 -67.003799 4.569964 -0.137461 -3.781618 5.152839 -0.029594 1.096954 24.198404 -5.098661 -1.310550 -4.936873 0.711318 -0.072157 -27.031656 -6.258477 1.585458 -13.595694 -31.993153 6.856907 -64.303665 -13.859677 -2.499017 0.267682 0.606554 31.040146 17.116243 30.611006 -4.629124 -42.447968 -19.752653 -56.329140 27.444138 18.573412 -3.134924 -43.989307 -7.846898 -17.409752 -34.356548 57.091099 14.385842 145.193680 5.531421 -0.735253 56.309616 8.205308 3.192663 -49.252388 -20.480976 -0.520319 140.403717 -16.589750 2.585392 56.309589 -8.210064 -3.194125 
4.959171 16.557928 -10.954638 0.000000 0.000000 -67.003799 4.569187 -0.138518 -4.685523 5.153835 -0.030956 0.382080 24.931038 -5.241470 -1.381895 -5.086380 0.732836 -0.075176 -25.474363 -5.763276 1.911120 -13.595694 -31.993153 6.856907 -65.350830 -13.985026 -2.751406 0.389548 0.504913 31.033453 16.934565 30.618742 -4.510791 -45.776585 -22.354094 -59.398296 27.452248 18.577362 -3.139193 -43.244556 -7.324232 -17.516962 -34.356548 57.091099 14.385842 145.193680 5.531421 -0.735253 56.309616 8.205308 3.192663 -49.252388 -20.480976 -0.520319 140.403717 -16.589750 2.585393 56.309589 -8.210064 -3.194125 
4.959171 16.557928 -10.954638 0.000000 0.000000 -67.003799 4.568428 -0.139585 -5.588356 5.154845 -0.032305 -0.332265 25.663021 -5.383165 -1.454984 -5.235878 0.754345 -0.078252 -23.927290 -5.261454 2.221679 -13.595694 -31.993153 6.856907 -66.397522 -14.105695 -3.005858 0.511421 0.403288 31.026531 16.752859 30.626143 -4.392426 -49.252357 -24.695086 -62.652084 27.460356 18.581310 -3.143462 -42.502518 -6.800854 -17.617083 -34.356548 57.091099 14.385842 145.193680 5.531421 -0.735253 56.309616 8.205308 3.192663 -49.252384 -20.480974 -0.520318 140.403702 -16.589748 2.585393 56.309589 -8.210064 -3.194125 
4.959171 16.557928 -10.954638 0.000000 0.000000 -67.003799 3.341106 -0.281744 -0.805506 6.934731 0.184247 3.479340 19.424187 -4.145543 -0.890817 -3.964957 0.571241 -0.053897 -33.433083 -7.187304 -0.508962 -13.595694 -31.993153 6.856907 -60.215893 -13.270125 -1.529842 0.633300 0.301682 31.019400 18.296507 30.552872 -5.397423 -31.751652 -12.779032 -45.922787 26.526516 14.902246 -2.756932 -38.811729 -9.077851 -19.752024 -34.356548 57.091099 14.385842 145.193680 5.531421 -0.735253 56.309616 8.205308 3.192663 -49.252388 -20.480976 -0.520319 140.403717 -16.589750 2.585392 56.309589 -8.210064 -3.194125 
4.959171 16.557928 -10.954638 0.000000 0.000000 -67.003799 2.101577 -0.321003 3.997212 8.729955 0.282016 7.306231 13.167758 -2.846092 -0.463199 -2.693828 0.387595 -0.033606 -43.059292 -8.635221 -3.534589 -13.595694 -31.993153 6.856907 -54.045895 -12.279548 -0.152299 0.755187 0.200095 31.012051 19.837509 30.456320 -6.399166 -14.248504 -0.866733 -29.203915 25.629868 11.209658 -2.436627 -35.005402 -11.215206 -22.050436 -34.356548 57.091099 14.385842 145.193680 5.531421 -0.735253 56.309616 8.205308 3.192663 -49.252388 -20.480976 -0.520319 140.403717 -16.589750 2.585393 56.309586 -8.210064 -3.194125 
4.959171 16.557928 -10.954638 0.000000 0.000000 -67.003799 0.863115 -0.256345 8.799651 10.527707 0.259723 11.134315 6.926654 -1.507908 -0.180144 -1.422785 0.203544 -0.017394 -52.556503 -10.559563 -6.263649 -13.595694 -31.993153 6.856907 -47.925507 -11.150851 1.103548 0.877081 0.098528 31.004486 21.374607 30.336611 -7.396429 3.254300 11.044250 -12.490048 24.763525 7.512706 -2.177993 -31.090956 -13.192199 -24.503210 -34.356548 57.091099 14.385842 145.193680 5.531421 -0.735253 56.309616 8.205308 3.192663 -49.252384 -20.480974 -0.520318 140.403702 -16.589748 2.585393 56.309586 -8.210064 -3.194125 
4.959171 16.557928 -10.954638 0.000000 0.000000 -67.003799 -0.361033 -0.089071 13.581678 12.315117 0.118034 14.949452 0.732713 -0.155336 -0.044707 -0.152121 0.019225 -0.005271 -62.192043 -12.009912 -9.295506 -13.595694 -31.993153 6.856907 -41.889271 -9.905341 2.219384 0.998984 -0.003018 30.996704 22.906595 30.193954 -8.388016 20.757071 22.954788 4.228477 23.921261 3.820468 -1.977400 -27.283638 -15.321714 -26.798475 -34.356548 57.091099 14.385842 145.193680 5.531421 -0.735253 56.309616 8.205308 3.192663 -49.252388 -20.480976 -0.520319 140.403717 -16.589750 2.585393 56.309593 -8.210065 -3.194125 
4.959171 16.557928 -10.954638 0.000000 0.000000 -67.003799 0.133726 -0.092685 13.568289 11.597651 0.107462 14.924480 1.684038 -0.358783 -0.083292 -0.152121 0.019225 -0.005271 -61.763748 -12.175009 -9.079000 -13.595694 -31.993153 6.856907 -42.156750 -9.983537 2.173572 0.694243 0.250886 31.015753 22.294840 30.257927 -7.987601 21.057436 23.093716 4.340049 24.240095 5.287650 -2.044289 -30.346685 -15.826298 -25.613771 -34.356548 57.091099 14.385842 145.193680 5.531421 -0.735253 56.309616 8.205308 3.192663 -49.252388 -20.480978 -0.520319 140.403717 -16.589750 2.585393 56.309593 -8.210065 -3.194125 
4.959171 16.557928 -10.954638 0.000000 0.000000 -67.003799 0.628560 -0.096184 13.554866 10.879961 0.096574 14.899632 2.636077 -0.561678 -0.125277 -0.152121 0.019225 -0.005271 -61.334492 -12.338539 -8.861073 -13.595694 -31.993153 6.856907 -42.424362 -10.061522 2.127376 0.389548 0.504913 31.033453 21.682070 30.318192 -7.586089 21.358414 23.232101 4.452531 24.561949 6.756458 -2.119687 -33.444679 -16.271324 -24.392931 -34.356548 57.091099 14.385842 145.193680 5.531421 -0.735253 56.309616 8.205308 3.192663 -49.252388 -20.480976 -0.520319 140.403702 -16.589748 2.585393 56.309589 -8.210064 -3.194125 
4.959171 16.557928 -10.954638 0.000000 0.000000 -67.003799 1.123451 -0.099567 13.541413 10.162110 0.085373 14.874923 3.588718 -0.763935 -0.170648 -0.152121 0.019225 -0.005271 -60.904293 -12.500486 -8.641741 -13.595694 -31.993153 6.856907 -42.692108 -10.139299 2.080798 0.084895 0.759047 31.049797 21.068384 30.374760 -7.183559 21.660023 23.369957 4.565928 24.887190 8.226344 -2.203767 -36.571743 -16.653610 -23.140827 -34.356548 57.091099 14.385842 145.193680 5.531421 -0.735253 56.309616 8.205308 3.192663 -49.252388 -20.480976 -0.520319 140.403717 -16.589750 2.585393 56.309589 -8.210064 -3.194125 
4.959171 16.557928 -10.954638 0.000000 0.000000 -67.003799 1.618379 -0.102834 13.527929 9.444151 0.073862 14.850351 4.541843 -0.965468 -0.219394 -0.152121 0.019225 -0.005271 -60.473148 -12.660826 -8.421014 -13.595694 -31.993153 6.856907 -42.959999 -10.216863 2.033839 -0.219721 1.013278 31.064804 20.453856 30.427605 -6.780091 21.962244 23.507257 4.680234 25.216158 9.696742 -2.296715 -39.721500 -16.970474 -21.862825 -34.356548 57.091099 14.385842 145.193680 5.531421 -0.735253 56.309616 8.205308 3.192663 -49.252384 -20.480974 -0.520318 140.403717 -16.589750 2.585393 56.309589 -8.210064 -3.194125 
4.959171 16.557928 -10.954638 0.000000 0.000000 -67.003799 2.113327 -0.105984 13.514419 8.726143 0.062043 14.825925 5.495341 -1.166191 -0.271497 -0.152121 0.019225 -0.005271 -60.041092 -12.819544 -8.198910 -13.595694 -31.993153 6.856907 -43.228024 -10.294210 1.986500 -0.524304 1.267591 31.078451 19.838562 30.476721 -6.375759 22.265089 23.644009 4.795452 25.549236 11.167099 -2.398746 -42.887157 -17.219818 -20.564726 -34.356548 57.091099 14.385842 145.193680 5.531421 -0.735253 56.309616 8.205308 3.192663 -49.252388 -20.480976 -0.520319 140.403717 -16.589750 2.585392 56.309589 -8.210064 -3.194125 
4.959171 16.557928 -10.954638 0.000000 0.000000 -67.003799 2.608275 -0.109018 13.500881 8.008136 0.049919 14.801641 6.449094 -1.366019 -0.326938 -0.152121 0.019225 -0.005271 -59.608147 -12.976623 -7.975445 -13.595694 -31.993153 6.856907 -43.496170 -10.371337 1.938780 -0.828860 1.521973 31.090752 19.222584 30.522087 -5.970642 22.568550 23.780203 4.911579 25.886799 12.636842 -2.510085 -46.061634 -17.400167 -19.252672 -34.356548 57.091099 14.385845 145.193680 5.531421 -0.735253 56.309616 8.205308 3.192663 -49.252388 -20.480978 -0.520319 140.403717 -16.589750 2.585393 56.309589 -8.210064 -3.194125 
4.959171 16.557928 -10.954638 0.000000 0.000000 -67.003799 3.103205 -0.111935 13.487319 7.290194 0.037492 14.777517 7.402986 -1.564868 -0.385695 -0.152121 0.019225 -0.005271 -59.174313 -13.132047 -7.750634 -13.595694 -31.993153 6.856907 -43.764446 -10.448244 1.890685 -1.133393 1.776410 31.101700 18.605995 30.563686 -5.564817 22.872618 23.915819 5.028611 26.229252 14.105401 -2.630987 -49.237610 -17.510700 -17.933001 -34.356548 57.091099 14.385845 145.193680 5.531421 -0.735253 56.309616 8.205308 3.192663 -49.252388 -20.480976 -0.520319 140.403717 -16.589750 2.585393 56.309586 -8.210064 -3.194125 
4.959171 16.557928 -10.954638 0.000000 0.000000 -67.003799 3.598101 -0.114734 13.473734 6.572368 0.024766 14.753559 8.356903 -1.762654 -0.447744 -0.152121 0.019225 -0.005271 -58.739613 -13.285793 -7.524491 -13.595694 -31.993153 6.856907 -44.032852 -10.524924 1.842212 -1.437908 2.030890 31.111298 17.988882 30.601519 -5.158366 23.177309 24.050869 5.146551 26.577015 15.572215 -2.761729 -52.407700 -17.551254 -16.612139 -34.356548 57.091099 14.385845 145.193680 5.531421 -0.735253 56.309616 8.205308 3.192663 -49.252388 -20.480976 -0.520319 140.403717 -16.589750 2.585393 56.309593 -8.210065 -3.194125 
4.959171 16.557928 -10.954638 0.000000 0.000000 -67.003799 4.092940 -0.117415 13.460126 5.854718 0.011744 14.729764 9.310725 -1.959295 -0.513056 -0.152121 0.019225 -0.005271 -58.304058 -13.437852 -7.297038 -13.595694 -31.993153 6.856907 -44.301380 -10.601380 1.793363 -1.742409 2.285399 31.119534 17.371332 30.635582 -4.751369 23.482609 24.185333 5.265395 26.930515 17.036707 -2.902608 -55.564617 -17.522366 -15.296504 -34.356548 57.091099 14.385845 145.193680 5.531421 -0.735253 56.309616 8.205308 3.192663 -49.252384 -20.480974 -0.520318 140.403717 -16.589750 2.585393 56.309589 -8.210064 -3.194125 
